<svg width="96" height="96" viewBox="0 0 96 96" fill="none" xmlns="http://www.w3.org/2000/svg">
  <rect width="96" height="96" rx="10" fill="#F36C5B"/>
  <rect x="15" y="20" width="66" height="44" rx="3" fill="#2C3E50"/>
  <rect x="20" y="25" width="56" height="34" rx="2" fill="#EAF0F4"/>
  <rect x="24" y="29" width="13" height="10" rx="1" fill="#FF6B6B"/>
  <rect x="40" y="29" width="18" height="4" rx="1" fill="#7B8A97"/>
  <rect x="40" y="35" width="26" height="4" rx="1" fill="#B0BEC8"/>
  <rect x="24" y="42" width="8" height="8" rx="1" fill="#4DB6AC"/>
  <rect x="35" y="42" width="8" height="8" rx="1" fill="#FFD166"/>
  <rect x="46" y="42" width="8" height="8" rx="1" fill="#EF476F"/>
  <rect x="57" y="42" width="15" height="8" rx="1" fill="#90A4AE"/>
  <rect x="37" y="64" width="22" height="5" rx="2.5" fill="#F9D65E"/>
  <rect x="43" y="59" width="10" height="5" rx="1" fill="#455A64"/>
</svg>
